PathFileType	4	(X/Y/Z)	SUBJ94_4_walk_RCNL2025.trc
DataRate	CameraRate	NumFrames	NumMarkers	Units	OrigDataRate	OrigDataStartFrame	OrigNumFrames
100	100	11	25	mm	100	186	297
Frame#	Time	R_Shoulder			L_Shoulder			C7			J_Notch			R_Elbow			L_Elbow			R_Wrist			L_Wrist			R_Asis			L_Asis			Sacral			Thoracic			Sternum			R_Thigh_Lateral			R_Knee_Lateral			R_Shank_Lateral			R_Ankle_Lateral			R_Heel			R_Toe			L_Thigh_Lateral			L_Knee_Lateral			L_Shank_Lateral			L_Ankle_Lateral			L_Heel			L_Toe		
		X1	Y1	Z1	X2	Y2	Z2	X3	Y3	Z3	X4	Y4	Z4	X5	Y5	Z5	X6	Y6	Z6	X7	Y7	Z7	X8	Y8	Z8	X9	Y9	Z9	X10	Y10	Z10	X11	Y11	Z11	X12	Y12	Z12	X13	Y13	Z13	X14	Y14	Z14	X15	Y15	Z15	X16	Y16	Z16	X17	Y17	Z17	X18	Y18	Z18	X19	Y19	Z19	X20	Y20	Z20	X21	Y21	Z21	X22	Y22	Z22	X23	Y23	Z23	X24	Y24	Z24	X25	Y25	Z25
186	1.85000000	751.503357	1249.992188	-176.466049	746.125916	1273.510620	-558.309021	685.598083	1342.684692	-365.002594	801.645691	1255.074707	-373.040344	689.463867	964.458252	-118.429962	663.298035	993.223450	-608.683167	754.266479	747.821960	-111.495422	773.890045	789.648987	-618.580719	820.939575	879.697144	-254.575363	805.017151	862.298584	-479.136017	620.875000	927.451050	-370.254944	622.813599	1141.130371	-369.857300	839.357117	1061.190308	-370.628601	783.999939	532.961060	-188.414978	776.550659	438.209290	-247.172684	771.376526	250.297409	-214.356125	747.416626	49.913036	-297.515930	700.117920	48.587337	-342.523621	878.807983	33.325485	-335.998047	803.591553	521.994507	-570.989502	812.535278	432.350952	-518.688232	677.952148	321.109833	-565.164551	523.333252	201.558701	-450.446350	499.015564	221.486588	-395.297882	584.592896	92.758263	-440.845825
187	1.86000000	764.065430	1251.224609	-176.949692	756.633118	1274.105835	-558.856262	697.159912	1343.488525	-365.009125	813.094788	1255.966919	-373.806641	705.734009	965.310120	-117.318123	672.956177	993.669434	-607.636841	773.708344	749.705231	-111.194073	779.928406	788.154694	-619.159119	831.841553	879.808411	-254.402771	816.126831	863.729919	-479.031921	631.978210	928.603638	-369.734467	634.435059	1141.942139	-369.449799	850.635376	1061.936279	-371.621338	788.278931	532.748474	-188.450302	779.390259	438.045135	-247.130173	772.222046	250.328445	-214.460159	747.618958	50.075729	-297.774445	700.372925	48.763760	-342.760925	878.911316	33.389618	-336.021088	823.171631	525.376953	-570.424377	835.609497	436.268005	-518.138733	705.008362	321.650696	-565.202271	552.684204	197.430359	-451.231476	526.686584	215.953964	-396.246033	619.123413	92.311066	-441.500000
188	1.87000000	776.464478	1252.254150	-177.461899	767.195801	1274.472046	-559.409119	708.695984	1344.110474	-365.076721	824.489685	1256.621094	-374.566620	721.982483	965.980896	-116.259308	682.624146	993.944580	-606.698669	793.388489	751.558136	-110.948414	786.009949	786.596771	-619.741272	842.687256	879.731506	-254.225800	827.189514	864.984192	-478.942230	643.017212	929.547485	-369.250488	645.960876	1142.593140	-369.118958	861.816895	1062.450439	-372.545013	792.625610	532.500793	-188.521286	782.205383	437.858734	-247.124008	773.096436	250.357330	-214.611069	747.812866	50.230118	-298.041473	700.631531	48.954750	-343.021576	879.003479	33.406586	-336.042664	842.339417	528.796631	-569.832336	858.096436	440.182007	-517.530762	732.323730	321.262604	-565.149170	582.832092	191.896423	-451.949768	555.160217	208.942429	-397.150513	654.702332	90.932343	-441.909485
189	1.88000000	788.720215	1253.063477	-177.994141	777.822510	1274.602417	-559.958862	720.214661	1344.538574	-365.198395	835.841431	1257.026855	-375.308319	738.201233	966.459656	-115.264107	692.310791	994.044128	-605.871948	813.266663	753.370087	-110.770943	792.161438	784.975006	-620.326843	853.482422	879.469910	-254.034790	838.226074	866.030762	-478.853027	654.001221	930.254517	-368.832123	657.401367	1143.070435	-368.864532	872.915283	1062.723145	-373.383392	797.103638	532.220093	-188.617477	785.057251	437.656403	-247.149353	774.049438	250.384476	-214.807220	747.997498	50.379250	-298.317841	700.889648	49.167168	-343.306091	879.084290	33.385323	-336.066803	861.071899	532.158997	-569.239075	879.926514	443.988434	-516.893494	759.821228	319.973206	-565.019836	613.777344	185.106110	-452.587036	584.510071	200.591309	-397.970398	691.183716	88.748352	-442.175659
190	1.89000000	800.855713	1253.638916	-178.539581	788.519165	1274.493896	-560.498535	731.724487	1344.764648	-365.367615	847.161377	1257.177490	-376.022095	754.384399	966.739075	-114.340492	702.025024	993.964966	-605.157593	833.304169	755.132446	-110.673210	798.408478	783.289093	-620.916687	864.230652	879.028625	-253.822372	849.256470	866.844299	-478.753448	664.938660	930.701111	-368.505768	668.767456	1143.364746	-368.685974	883.943787	1062.747192	-374.124939	801.758301	531.903381	-188.729446	787.998901	437.442078	-247.202148	775.118591	250.410309	-215.045837	748.172485	50.527008	-298.607025	701.144165	49.407791	-343.618317	879.154236	33.335850	-336.097504	879.337097	535.369324	-568.668335	901.033020	447.586182	-516.254517	787.407715	317.850281	-564.835449	645.536072	177.235809	-453.138885	614.814392	191.067032	-398.677887	728.454468	85.919014	-442.399811
191	1.90000000	812.895935	1253.970825	-179.093399	799.289429	1274.146851	-561.023132	743.234131	1344.784058	-365.578552	858.461243	1257.069702	-376.700958	770.528320	966.815491	-113.494057	711.775330	993.705688	-604.554260	853.464050	756.838928	-110.665798	804.775269	781.539093	-621.512543	874.933411	878.414124	-253.583755	860.299866	867.405701	-478.635834	675.837463	930.868958	-368.294159	680.070923	1143.470337	-368.582397	894.915344	1062.517822	-374.762787	806.618713	531.544434	-188.849594	791.075867	437.217529	-247.279526	776.329163	250.435379	-215.323151	748.337891	50.678154	-298.914764	701.393188	49.683559	-343.964905	879.214600	33.267406	-336.138367	897.093933	538.334717	-568.140808	921.353333	450.880829	-515.639099	814.973145	314.996338	-564.623657	678.132935	168.484024	-453.612091	646.147522	180.561035	-399.261353	766.429260	82.629631	-442.674805
192	1.91000000	824.867065	1254.053589	-179.652786	810.135071	1273.565674	-561.529724	754.752136	1344.596191	-365.826324	869.752869	1256.703735	-377.340546	786.630676	966.689148	-112.728416	721.570129	993.267029	-604.058899	873.710846	758.485565	-110.758297	811.284515	779.725739	-622.116974	885.590759	877.634705	-253.316757	871.374084	867.702393	-478.495941	686.705750	930.746216	-368.216064	691.323914	1143.385254	-368.552856	905.842346	1062.033447	-375.294891	811.700623	531.135437	-188.972397	794.326050	436.982971	-247.379898	777.696045	250.460403	-215.634735	748.494202	50.838383	-299.248474	701.636292	50.001755	-344.354523	879.267517	33.187374	-336.191986	914.293579	540.966675	-567.673950	940.831116	453.787476	-515.069031	842.392578	311.539856	-564.417358	711.592834	159.066391	-454.024475	678.570557	169.287186	-399.726471	805.041687	79.082680	-443.078918
193	1.92000000	836.795349	1253.886597	-180.217010	821.056213	1272.758545	-562.017639	766.287109	1344.203979	-366.107239	881.048157	1256.083740	-377.939392	802.690063	966.364319	-112.045601	731.417358	992.651978	-603.666809	894.010712	760.070801	-110.959320	817.957153	777.850891	-622.733002	896.201660	876.700867	-253.021744	882.496033	867.729126	-478.332794	697.551941	930.327637	-368.286011	702.539124	1143.110962	-368.596283	916.737000	1061.296021	-375.723785	817.009827	530.669189	-189.094513	797.781189	436.737518	-247.502869	779.225891	250.486328	-215.975601	748.642151	51.014446	-299.616272	701.874695	50.370159	-344.796478	879.315918	33.100975	-336.259979	930.882324	543.182922	-567.281494	959.418884	456.233063	-514.561890	869.530579	307.625549	-564.252625	745.929749	149.210876	-454.403748	712.120239	157.478104	-400.095398	844.232361	75.489624	-443.671356
194	1.93000000	848.706055	1253.473999	-180.787277	832.051819	1271.736938	-562.488220	777.847107	1343.614136	-366.418976	892.359009	1255.217529	-378.498718	818.705505	965.849243	-111.446419	741.324890	991.865967	-603.372192	914.330811	761.595673	-111.276440	824.812439	775.917877	-623.363983	906.764771	875.625488	-252.701401	893.681213	867.487610	-478.148254	708.385376	929.615479	-368.514435	713.729797	1142.652588	-368.711731	927.611511	1060.310913	-376.056122	822.545227	530.140503	-189.214630	801.467590	436.479736	-247.648941	780.920105	250.514420	-216.340393	748.782776	51.214180	-300.025513	702.111267	50.797161	-345.299164	879.363220	33.011482	-336.342346	946.805298	544.910156	-566.973572	977.080688	458.158569	-514.130127	896.248169	303.403900	-564.165710	781.134949	139.152390	-454.785156	746.797974	145.380081	-400.404175	883.935791	72.062439	-444.490112
195	1.94000000	860.622864	1252.824951	-181.366638	843.120422	1270.516113	-562.944824	789.440186	1342.837280	-366.760559	903.697205	1254.117065	-379.022369	834.675598	965.155945	-110.930878	751.300171	990.917114	-603.168396	934.639465	763.063629	-111.716175	831.867706	773.931732	-624.013428	917.279236	874.423889	-252.360260	904.944214	866.986206	-477.946442	719.216553	928.619324	-368.907928	724.909546	1142.018799	-368.898254	938.478088	1059.088135	-376.302399	828.302246	529.547546	-189.332886	805.406860	436.208282	-247.819016	782.777344	250.546280	-216.723282	748.917908	51.446541	-300.481506	702.350342	51.291939	-345.867950	879.413330	32.920811	-336.437561	962.011108	546.086487	-566.756653	993.795532	459.520721	-513.781128	922.410461	299.021423	-564.190063	817.164429	129.126633	-455.208313	782.557983	133.246353	-400.698608	924.066284	69.004562	-445.551086
196	1.95000000	872.566895	1251.953613	-181.959686	854.260376	1269.114746	-563.392822	801.073730	1341.886963	-367.132507	915.074341	1252.798218	-379.516479	850.598206	964.300293	-110.498489	761.350464	989.816406	-603.048401	954.905457	764.480560	-112.283916	839.138428	771.899597	-624.684784	927.745361	873.113831	-252.004379	916.298462	866.239746	-477.733307	730.057495	927.356140	-369.469513	736.092285	1141.221191	-369.155182	949.349365	1057.641846	-376.476288	834.274597	528.892639	-189.450348	809.617554	435.922150	-248.013885	784.796387	250.583771	-217.117844	749.049744	51.721546	-300.985687	702.596863	51.864620	-346.503265	879.470520	32.830196	-336.542480	976.457275	546.664795	-566.633972	1009.560364	460.293549	-513.516418	947.895203	294.612579	-564.352783	853.927673	119.362808	-455.713226	819.296997	121.328560	-401.029297	964.505005	66.501106	-446.849091
